<svg viewBox="0 0 40 40" fill="none" xmlns="http://www.w3.org/2000/svg">
  <rect width="40" height="40" rx="8" fill="#E85D04"/>
  <path d="M23.1 5.4c0-1.8-1.5-3.3-3.3-3.3 -1.8 0-3.3 1.5-3.3 3.3v7.2l-5.8-4.2c-1.4-1-3.6-0.7-4.6 0.7 -1 1.4-0.7 3.6 0.7 4.6l5.8 4.4-6.9-1.3c-1.8-0.3-3.5 0.9-3.8 2.7 -0.3 1.8 0.9 3.5 2.7 3.8l7 1.3-6.1 3.7c-1.5 0.9-2 3-1 4.5 1 1.5 3 2 4.5 1l6.4-3.8-2.2 6.8c-0.6 1.7 0.4 3.6 2.1 4.2 1.7 0.6 3.6-0.4 4.2-2.1l2.4-7.3 2.4 7.3c0.6 1.7 2.5 2.7 4.2 2.1 1.7-0.6 2.7-2.5 2.1-4.2l-2.2-6.8 6.4 3.8c1.5 0.9 3.5 0.4 4.5-1 1-1.5 0.5-3.6-1-4.5l-6.1-3.7 7-1.3c1.8-0.3 3-2 2.7-3.8 -0.3-1.8-2-3-3.8-2.7l-7 1.3 5.8-4.4c1.4-1 1.7-3.2 0.7-4.6 -1-1.4-3.2-1.7-4.6-0.7l-5.8 4.2V5.4z" fill="white"/>
</svg>
